<svg id="arrow-left-circle" xmlns="http://www.w3.org/2000/svg" width="36" height="36" viewBox="0 0 36 36">
  <path id="Path_8" data-name="Path 8" d="M18,33.75A15.75,15.75,0,1,0,2.25,18,15.75,15.75,0,0,0,18,33.75ZM18,36A18,18,0,1,0,0,18,18,18,0,0,0,18,36Z" fill="#f94f4f" fill-rule="evenodd"/>
  <path id="Path_9" data-name="Path 9" d="M18.8,25.546a1.125,1.125,0,0,0,0-1.593L12.841,18,18.8,12.046A1.126,1.126,0,0,0,17.2,10.453l-6.75,6.75a1.125,1.125,0,0,0,0,1.593l6.75,6.75a1.125,1.125,0,0,0,1.593,0Z" fill="#f94f4f" fill-rule="evenodd"/>
  <path id="Path_10" data-name="Path 10" d="M25.875,18a1.125,1.125,0,0,0-1.125-1.125H13.5a1.125,1.125,0,0,0,0,2.25H24.75A1.125,1.125,0,0,0,25.875,18Z" fill="#f94f4f" fill-rule="evenodd"/>
</svg>
