<svg xmlns="http://www.w3.org/2000/svg" width="126.371" height="57.624" viewBox="0 0 126.371 57.624">
  <path id="Decoration-white" d="M-835.334,1391.73h27.688s-1-6.017,6.733-8.71,24.078,7,37.356,12.2,26.933,2.693,26.933,2.693,6.74-1.062,11.662-4.929c5.086-3.995,7.157-7.116,10.612-13.467s5.387-32.859,5.387-32.859-28.738-1.266-27.66,0-.583,7.385-3.959,9.858-9.7,1.266-16.86-1.427c-3.747-1.409-11.757-6.436-20.846-9.7-7.732-2.774-15.268-3.843-16.591-4.228-2.774-.808-20.348-.6-30.461,12.039S-835.334,1391.73-835.334,1391.73Z" transform="translate(835.334 -1340.893)" fill="#fff"/>
</svg>
