<svg xmlns="http://www.w3.org/2000/svg" width="375" height="765.333" viewBox="0 0 375 765.333">
  <g id="icon_close" data-name="icon close" transform="translate(361.969 -60.667)">
    <g id="Links_menu" data-name="Links menu" transform="translate(-393.917 -5)">
      <rect id="Rectangle_2" data-name="Rectangle 2" width="375" height="725" transform="translate(31.948 106)" fill="#f94f4f"/>
      <g id="Nav-Links" transform="translate(-627.053 149.788)">
        <g id="About" transform="translate(747.267 49.212)">
          <line id="Line_1" data-name="Line 1" x2="132.796" transform="translate(0 39.765)" fill="none" stroke="#fff" stroke-width="4"/>
          <text id="About-2" data-name="About" transform="translate(34.503 45)" fill="#163239" font-size="44" font-family="SofiaPro-Black, Sofia Pro" font-weight="800"><tspan x="0" y="0">ABOUT</tspan></text>
        </g>
        <text id="Services" transform="translate(765.525 247.002)" fill="#fff" font-size="42" font-family="SofiaProSemiBold, Sofia Pro"><tspan x="0" y="0">Services</tspan></text>
        <text id="Contact_us" data-name="Contact us" transform="translate(741.57 412.908)" fill="#fff" font-size="43" font-family="SofiaProSemiBold, Sofia Pro"><tspan x="0" y="0">Contact us</tspan></text>
      </g>
      <g id="btn_black" data-name="btn black" transform="translate(134.947 651)">
        <rect id="container" width="168" height="66" transform="translate(1)" fill="#191921"/>
        <rect id="container_white" data-name="container white" width="1" height="66" fill="#f94f4f"/>
        <text id="Schedule_a_Call" data-name="Schedule a Call" transform="translate(30 39)" fill="#fff" font-size="15" font-family="SofiaProSemiBold, Sofia Pro"><tspan x="0" y="0">Schedule a Call</tspan></text>
      </g>
    </g>
    <g id="hamburger-menu" transform="translate(-51.115 59.25)">
      <path id="Path_11" data-name="Path 11" d="M5.625,6.75H29.75V9H5.625Z" transform="matrix(0.695, 0.719, -0.719, 0.695, 11.065, -7.319)" fill="#f94f4f"/>
      <path id="Path_13" data-name="Path 13" d="M5.625,27H29.75v2.25H5.625Z" transform="matrix(0.719, -0.695, 0.695, 0.719, -14.573, 3.18)" fill="#f94f4f"/>
    </g>
  </g>
</svg>
