<svg xmlns="http://www.w3.org/2000/svg" width="161.895" height="52.326" viewBox="0 0 161.895 52.326">
  <g id="Logo_mobile" data-name="Logo mobile" transform="translate(-162.105 -33.674)">
    <text id="creative" transform="translate(215 78)" fill="#191921" font-size="29" font-family="AbrilFatface-Regular, Abril Fatface"><tspan x="0" y="0">creative</tspan></text>
    <g id="__TEMP__SVG__" transform="translate(178.25 29.174)">
      <path id="Path_1" data-name="Path 1" d="M21.375,19.125h6.75v2.25h-6.75Z" fill="#f94f4f"/>
      <path id="Path_2" data-name="Path 2" d="M12.375,19.125h6.75v2.25h-6.75Z" fill="#f94f4f"/>
      <path id="Path_3" data-name="Path 3" d="M6.75,19.125h3.375v2.25H6.75Z" fill="#f94f4f"/>
      <path id="Path_4" data-name="Path 4" d="M24.75,14.625h4.5v2.25h-4.5Z" fill="#f94f4f"/>
      <path id="Path_5" data-name="Path 5" d="M14.625,14.625H22.5v2.25H14.625Z" fill="#f94f4f"/>
      <path id="Path_6" data-name="Path 6" d="M6.75,14.625h5.625v2.25H6.75Z" fill="#f94f4f"/>
      <path id="Path_7" data-name="Path 7" d="M19.953,33.75,18,32.625l4.5-7.875h6.75A2.247,2.247,0,0,0,31.5,22.5V9a2.247,2.247,0,0,0-2.25-2.25H6.75A2.247,2.247,0,0,0,4.5,9V22.5a2.247,2.247,0,0,0,2.25,2.25H16.875V27H6.75a4.5,4.5,0,0,1-4.5-4.5V9a4.5,4.5,0,0,1,4.5-4.5h22.5A4.5,4.5,0,0,1,33.75,9V22.5a4.5,4.5,0,0,1-4.5,4.5H23.811Z" fill="#f94f4f"/>
    </g>
    <path id="c" d="M25.535,13.824A5.9,5.9,0,0,0,19.6,8.747c-5.355-.137-8.1,3.7-8.1,9.195s3.039,9.882,8.247,9.882,5.79-5.49,5.79-5.49l9.984.549a10.891,10.891,0,0,1-3.591,8.742c-4.179,3.782-9.306,4.4-12.888,4.375s-8.547.051-13.35-4.454A16.418,16.418,0,0,1,.075,18.372c0-4.3.91-9.991,6.621-14.31A18.873,18.873,0,0,1,18.444.05C34.869.048,35.97,13.92,35.97,13.92Z" transform="translate(162.03 48.249)" fill="#f94f4f"/>
  </g>
</svg>
