<svg xmlns="http://www.w3.org/2000/svg" width="82.212" height="66.784" viewBox="0 0 82.212 66.784">
  <path id="twitter_icon" data-name="twitter icon" d="M82.212,7.91a34.153,34.153,0,0,1-8.427,8.71q.05.966.05,2.183a48.447,48.447,0,0,1-8,26.522,51.241,51.241,0,0,1-9.655,10.984,43.041,43.041,0,0,1-13.469,7.63,49.2,49.2,0,0,1-16.86,2.845A46.946,46.946,0,0,1,0,59.2a36.47,36.47,0,0,0,4.024.233,33.068,33.068,0,0,0,20.95-7.225,16.365,16.365,0,0,1-9.794-3.366A16.577,16.577,0,0,1,9.226,40.5a16.86,16.86,0,0,0,7.616-.283A16.439,16.439,0,0,1,7.159,34.4,16.319,16.319,0,0,1,3.314,23.686v-.208a16.645,16.645,0,0,0,7.641,2.11,16.754,16.754,0,0,1-5.481-6.01,16.458,16.458,0,0,1-2.026-8.02A16.571,16.571,0,0,1,5.73,3.083,48.023,48.023,0,0,0,21.107,15.531a46.87,46.87,0,0,0,19.381,5.177,16.493,16.493,0,0,1-.443-3.839A16.248,16.248,0,0,1,44.987,4.946a16.873,16.873,0,0,1,24.236.377,33.593,33.593,0,0,0,10.708-4.1,16.306,16.306,0,0,1-7.408,9.333A33.707,33.707,0,0,0,82.212,7.91Z" fill="#f94f4f"/>
</svg>
